<svg version="1.1" id="Layer_1" xmlns="http://www.w3.org/2000/svg" xmlns:xlink="http://www.w3.org/1999/xlink" x="0px" y="0px"
	 width="100%" viewBox="0 0 550 555" enable-background="new 0 0 550 555" xml:space="preserve">
<path fill="#000000" opacity="1.000000" stroke="none" 
	d="
M1.275433,305.273743 
	C1.000000,205.076782 1.025341,105.153526 0.898843,5.230459 
	C0.894223,1.581289 1.703827,0.900706 5.263275,0.905649 
	C92.196281,1.026391 179.129501,1.000000 266.531342,1.000000 
	C269.585205,3.164929 268.369049,4.365423 266.031372,5.670115 
	C235.473755,22.724638 205.416962,40.650650 175.052719,58.042801 
	C164.642853,64.005402 154.315979,70.117325 143.905304,76.079651 
	C133.453003,82.065819 128.337769,90.494576 128.369888,102.978172 
	C128.609940,196.310547 128.576523,289.644012 128.404053,382.976685 
	C128.382324,394.732330 132.944199,403.044403 143.024261,408.809448 
	C163.274765,420.391266 183.503815,432.015015 203.563370,443.923096 
	C209.380981,447.376648 214.506897,447.579712 220.318695,443.982666 
	C230.659409,437.582550 241.371567,431.793457 251.830521,425.581329 
	C257.248657,422.363220 257.309814,420.005188 251.737747,416.745575 
	C229.156509,403.535889 206.576477,390.318207 183.776917,377.492645 
	C177.884399,374.177887 175.319519,370.427704 175.341293,363.372559 
	C175.590088,282.706940 175.576691,202.040054 175.354996,121.374283 
	C175.337387,114.966019 177.527466,111.507561 182.959381,108.404030 
	C211.606125,92.036674 240.190475,75.555550 268.658295,58.878628 
	C274.060120,55.714146 278.293182,55.650276 283.776154,58.886284 
	C312.619751,75.909706 341.642242,92.632782 370.712402,109.267845 
	C375.094849,111.775658 376.639557,114.794762 376.582306,119.686081 
	C376.377563,137.183502 376.677277,154.687790 376.415436,172.183472 
	C376.310669,179.186081 378.902222,183.809021 385.067993,187.086395 
	C395.219147,192.482193 404.998108,198.554291 414.947357,204.318115 
	C421.267120,207.979263 423.441589,206.809128 423.458344,199.581024 
	C423.535614,166.248001 423.476166,132.914734 423.501526,99.581650 
	C423.509674,88.852798 417.976715,81.746132 409.188934,76.652458 
	C400.250854,71.471649 391.309845,66.295082 382.374146,61.110294 
	C350.953949,42.879299 319.455353,24.783434 288.114258,6.416811 
	C286.487762,5.463645 282.927826,5.048830 285.712402,1.289524 
	C372.932953,1.000000 459.865936,1.031495 546.798645,0.892338 
	C550.528320,0.886368 551.091309,1.812499 551.087463,5.292396 
	C550.978882,104.549072 551.000000,203.805893 551.000000,303.531342 
	C549.795532,305.234955 548.489380,306.698364 547.033569,304.445404 
	C540.042969,293.627106 528.369873,289.104675 517.943054,283.073975 
	C442.667267,239.535751 367.256775,196.230270 292.055359,152.563431 
	C281.711426,146.557068 271.823273,146.062042 261.384125,152.126999 
	C240.642258,164.177704 219.877319,176.191544 198.994812,187.997894 
	C194.431503,190.577866 192.443680,194.218491 192.478668,199.417374 
	C192.562759,211.913712 192.489563,224.411636 192.509155,236.908844 
	C192.522324,245.300674 193.819855,246.116852 200.938766,241.988693 
	C222.844101,229.286072 244.834106,216.730118 266.715881,203.986847 
	C267.291626,203.651535 267.873413,203.318863 268.419952,202.942932 
	C273.417786,199.505173 277.947266,199.416183 283.560944,202.681717 
	C321.719635,224.879028 359.959839,246.938370 398.230865,268.943146 
	C429.714386,287.045349 461.150116,305.230408 492.612885,323.368591 
	C494.201904,324.284637 495.686371,325.378815 497.307281,326.227966 
	C500.279053,327.784851 501.524933,330.132843 501.521667,333.517853 
	C501.487518,368.843445 501.472870,404.169220 501.536438,439.494720 
	C501.543518,443.426819 499.557892,445.502502 496.455017,447.313843 
	C471.277863,462.011414 445.949646,476.447052 420.727936,491.067108 
	C416.259857,493.657104 411.577148,495.922058 407.344696,498.860718 
	C402.905457,501.942963 398.873627,501.752258 394.376923,499.063904 
	C381.508514,491.370544 368.446503,484.005646 355.454132,476.523254 
	C339.077148,467.091736 342.294922,467.124298 326.366028,476.143341 
	C317.522186,481.150787 308.764008,486.304321 299.981018,491.415222 
	C294.598206,494.547516 294.661652,496.450439 300.185974,499.620605 
	C330.094910,516.784119 359.847717,534.218445 389.812408,551.285278 
	C391.435944,552.209961 394.105469,552.789368 391.263092,555.735535 
	C314.645782,556.000000 238.291550,556.000000 161.468658,556.000000 
	C158.917953,554.245422 159.004578,552.985657 161.534088,551.555664 
	C193.734055,533.351990 225.684814,514.713989 257.720123,496.223480 
	C301.733521,470.819183 345.753754,445.426666 389.738739,419.973083 
	C395.939911,416.384521 402.136597,412.786499 408.402039,409.312103 
	C418.601929,403.655945 423.878204,395.568542 423.635284,383.383942 
	C423.166931,359.894989 423.327332,336.387909 423.604401,312.892883 
	C423.686798,305.907745 421.365326,301.315063 415.124725,297.982849 
	C404.694580,292.413635 394.622040,286.181610 384.303314,280.394897 
	C378.372009,277.068604 376.560272,278.026123 376.537109,284.869629 
	C376.446869,311.534180 376.368439,338.200378 376.610596,364.862854 
	C376.663055,370.637299 374.564270,373.934814 369.631348,376.768280 
	C299.414062,417.101196 229.322693,457.653198 159.219879,498.184784 
	C153.832779,501.299469 149.378830,501.589020 143.963730,498.420837 
	C114.338593,481.088318 84.549728,464.036255 54.841442,446.845703 
	C51.737240,445.049438 50.467686,442.680389 50.472725,439.132507 
	C50.522655,403.968475 50.510731,368.804321 50.476326,333.640259 
	C50.472782,330.019348 51.983673,327.801788 55.034073,326.039032 
	C70.470131,317.118713 85.796021,307.996857 101.426720,299.429688 
	C107.874977,295.895416 110.920929,291.448395 110.620811,283.919373 
	C110.156540,272.272125 110.539352,260.592407 110.483437,248.926804 
	C110.445564,241.026489 108.877098,240.003937 102.131142,243.886154 
	C77.003258,258.347015 51.900875,272.852386 26.784122,287.332733 
	C22.167286,289.994415 17.471046,292.515564 13.182959,295.727173 
	C10.050899,298.072968 7.615334,300.950043 5.664412,304.307709 
	C4.719124,305.934601 3.707098,307.752319 1.275433,305.273743 
z"/>
<path fill="#202020" opacity="1.000000" stroke="none" 
	d="
M391.468384,556.000000 
	C385.408539,550.904663 378.473755,547.925049 372.052460,544.178284 
	C345.731140,528.820129 319.285095,513.675659 292.880585,498.460144 
	C288.078796,495.693115 287.983429,495.321320 292.781372,492.519623 
	C307.449066,483.954712 322.215912,475.559387 336.865784,466.964478 
	C339.518860,465.407959 341.645416,465.507202 344.242371,467.017944 
	C360.939636,476.731293 377.782898,486.196320 394.394928,496.051849 
	C398.800690,498.665680 402.263885,498.812653 406.769531,496.176788 
	C435.085205,479.611542 463.507904,463.226532 492.029327,447.017975 
	C497.096100,444.138550 499.190002,440.770355 499.136047,434.771851 
	C498.845184,402.442169 498.868500,370.107513 499.121490,337.777191 
	C499.165222,332.188080 497.260620,328.969513 492.506897,326.254028 
	C457.224670,306.099884 422.057922,285.743561 386.856201,265.448486 
	C353.097534,245.985367 319.226044,226.713120 285.676941,206.895142 
	C278.783630,202.823151 273.721161,202.587646 266.715942,206.835449 
	C243.368698,220.992645 219.535797,234.349670 195.868805,247.978226 
	C191.046066,250.755386 190.046371,250.231354 190.029434,244.854477 
	C189.977463,228.355225 190.047623,211.855591 189.996033,195.356339 
	C189.985855,192.103882 190.855469,189.691177 193.914978,187.940277 
	C217.039871,174.706299 239.981293,161.146942 263.236938,148.148849 
	C271.509827,143.524963 280.616852,143.301453 289.113159,148.116409 
	C309.830200,159.856964 330.423553,171.816071 351.056458,183.704926 
	C389.581146,205.903152 428.107300,228.098801 466.615753,250.325195 
	C490.125244,263.894470 513.563782,277.587341 537.123535,291.068542 
	C542.667297,294.240753 546.037170,299.448944 550.690186,303.874268 
	C551.000000,358.687561 551.000000,413.375122 551.000000,468.531342 
	C548.286682,478.592590 540.465332,483.113190 532.598755,487.647461 
	C495.408630,509.083771 458.197937,530.484497 421.052155,551.997253 
	C418.013885,553.756897 414.623047,554.161499 411.255737,555.752075 
	C404.645599,556.000000 398.291199,556.000000 391.468384,556.000000 
z"/>
<path fill="#202020" opacity="1.000000" stroke="none" 
	d="
M1.000000,305.468658 
	C4.914234,302.311920 6.162245,297.387054 10.066463,294.556885 
	C15.484931,290.628967 21.300783,287.408142 27.055214,284.073761 
	C52.983837,269.049591 78.955414,254.099579 104.911156,239.122208 
	C112.654724,234.653900 112.993591,234.850647 112.996849,243.993408 
	C113.002319,259.322174 112.900108,274.651825 113.048607,289.979126 
	C113.088890,294.137726 111.603439,296.607971 107.903786,298.692261 
	C90.933960,308.252625 74.171989,318.181274 57.244015,327.817169 
	C54.244061,329.524841 52.994915,331.660187 52.999493,335.013336 
	C53.046326,369.336273 53.046246,403.659332 52.999477,437.982269 
	C52.994911,441.333923 54.248379,443.459229 57.240715,445.179169 
	C86.541580,462.020844 115.797615,478.941345 144.981888,495.984131 
	C149.503036,498.624329 153.166122,498.640259 157.860199,495.909912 
	C202.472046,469.961365 247.235886,444.274139 291.947968,418.497833 
	C317.909882,403.530853 343.828003,388.487488 369.843689,373.614685 
	C373.559082,371.490631 374.012939,368.430511 374.008911,364.773773 
	C373.978455,337.115417 373.955566,309.456787 374.062805,281.798767 
	C374.073822,278.959106 372.505859,275.111237 375.525909,273.480316 
	C378.228333,272.020935 380.617523,275.202393 382.989471,276.551178 
	C395.869476,283.875366 408.618561,291.431122 421.536835,298.686035 
	C424.721588,300.474609 426.021454,302.701508 426.012848,306.258301 
	C425.945770,333.916504 426.034424,361.575104 425.942169,389.233154 
	C425.908112,399.443390 419.518158,405.770752 411.522797,410.537842 
	C397.796814,418.721680 383.830414,426.501770 369.984833,434.485809 
	C334.794189,454.778473 299.609009,475.080505 264.432129,495.396973 
	C230.985672,514.713928 197.550995,534.051147 164.120895,553.396301 
	C163.129501,553.970032 162.247864,554.733398 161.157532,555.704224 
	C154.645599,556.000000 148.291214,556.000000 141.468414,556.000000 
	C105.427094,539.262634 72.736526,517.386963 38.412346,498.422241 
	C30.414911,494.003571 22.527555,489.379700 14.629143,484.780273 
	C8.151770,481.008392 2.801198,476.419708 1.248441,468.257507 
	C1.000000,413.979095 1.000000,359.958221 1.000000,305.468658 
z"/>
<path fill="#202020" opacity="1.000000" stroke="none" 
	d="
M285.531738,1.000000 
	C286.781189,3.095927 288.762115,3.786867 290.469177,4.775186 
	C330.678833,28.054792 370.914429,51.289684 411.092560,74.623589 
	C420.833038,80.280479 426.257355,88.251518 426.129425,100.237762 
	C425.761230,134.733521 425.999664,169.235779 425.998810,203.735474 
	C425.998779,204.902100 426.019409,206.069870 425.977295,207.235168 
	C425.792633,212.346085 424.683411,213.037506 420.370239,210.544586 
	C409.700928,204.377975 399.067657,198.149078 388.418976,191.946823 
	C385.684998,190.354446 383.068848,188.487625 380.185028,187.240585 
	C375.100433,185.041809 373.849365,181.275299 373.913208,176.041153 
	C374.138916,157.544113 373.896240,139.041672 374.063751,120.543381 
	C374.104797,116.007477 372.539215,113.365692 368.494293,111.056511 
	C339.570282,94.544250 310.756348,77.836983 282.035370,60.973721 
	C277.727966,58.444675 274.470215,58.564804 270.179260,61.079845 
	C241.445511,77.921471 212.583603,94.545891 183.669724,111.077156 
	C179.755051,113.315338 177.931900,115.930183 177.937515,120.556808 
	C178.036148,201.889313 178.040634,283.221985 177.927292,364.554443 
	C177.920563,369.380463 179.789719,372.142303 183.843964,374.464417 
	C209.132355,388.948669 234.322495,403.604614 259.528381,418.232635 
	C264.141632,420.909851 264.080353,421.593353 259.407623,424.301025 
	C245.575089,432.316467 231.713425,440.283020 217.952682,448.420044 
	C214.169052,450.657379 210.785965,451.205750 206.778656,448.858582 
	C184.505981,435.812988 162.092636,423.007141 139.845490,409.918579 
	C130.769150,404.578735 125.889435,396.847687 125.908463,385.744751 
	C126.070389,291.245850 126.168739,196.745911 125.812744,102.248077 
	C125.761330,88.599800 131.640015,80.025932 142.774139,73.617676 
	C183.620575,50.108536 224.400879,26.484486 265.196594,2.887341 
	C265.755463,2.564094 266.191406,2.028379 266.842346,1.295916 
	C273.021149,1.000000 279.042297,1.000000 285.531738,1.000000 
z"/>
<path fill="#000000" opacity="1.000000" stroke="none" 
	d="
M1.000000,468.468658 
	C1.149571,468.073303 1.364812,468.105804 1.439397,468.225739 
	C10.803288,483.284058 27.289829,488.611420 41.396244,496.986084 
	C72.164581,515.252563 103.336372,532.839233 134.325821,550.733948 
	C136.610840,552.053467 139.094070,553.152100 140.866455,555.692200 
	C95.587463,556.000000 50.174843,555.965576 4.762574,556.076477 
	C1.691737,556.083984 0.897259,555.445496 0.914180,552.276306 
	C1.062493,524.497253 1.000000,496.717133 1.000000,468.468658 
z"/>
<path fill="#000000" opacity="1.000000" stroke="none" 
	d="
M411.468658,556.000000 
	C414.465363,551.463501 419.815826,549.626953 424.474396,546.918579 
	C461.529297,525.375244 498.648773,503.941711 535.865845,482.680023 
	C541.847534,479.262756 545.832764,474.045135 550.696533,469.139648 
	C551.000000,496.779602 550.926208,524.559631 551.097168,552.338196 
	C551.117615,555.661682 550.096558,556.070068 547.175598,556.064148 
	C502.096313,555.972290 457.016785,556.000000 411.468658,556.000000 
z"/>
</svg>