<svg version="1.1" id="Layer_1" xmlns="http://www.w3.org/2000/svg" xmlns:xlink="http://www.w3.org/1999/xlink" x="0px" y="0px"
	 width="100%" viewBox="0 0 1416 297" enable-background="new 0 0 1416 297" xml:space="preserve">
<path fill="#000000" opacity="1.000000" stroke="none" 
	d="
M203.000000,298.000000 
	C164.309250,298.000000 125.618507,298.000000 86.128265,297.750000 
	C85.776321,297.034088 86.146118,296.435059 86.682716,296.121613 
	C102.239311,287.033813 117.854546,278.045807 133.373901,268.895111 
	C160.917435,252.654510 188.421158,236.346069 215.896896,219.991058 
	C219.973511,217.564453 223.015656,214.246719 223.007721,209.021454 
	C222.984955,194.023865 223.025253,179.026093 222.951309,164.028839 
	C222.945374,162.827667 222.627701,161.016098 221.822632,160.525253 
	C213.562592,155.489365 205.171875,150.667847 196.000015,145.308762 
	C196.000015,147.829239 196.000015,149.424438 196.000015,151.019638 
	C196.000000,165.683975 196.053925,180.348831 195.916641,195.011887 
	C195.902878,196.480255 195.143082,198.612885 194.029327,199.296570 
	C182.005600,206.677322 169.863678,213.867020 157.710999,221.035919 
	C132.412231,235.959824 107.102905,250.866180 81.722488,265.650208 
	C80.585541,266.312469 78.378403,266.266418 77.222260,265.596619 
	C61.208153,256.318787 45.290855,246.873901 29.002888,237.265213 
	C29.002888,217.995895 28.977440,198.340897 29.077368,178.686539 
	C29.082413,177.694519 29.927582,176.308014 30.792852,175.783005 
	C37.033009,171.996628 43.182095,167.973892 49.744255,164.827332 
	C57.182636,161.260620 61.563057,156.909775 60.206051,147.704010 
	C59.167931,140.661499 59.999622,133.343338 59.999622,125.138458 
	C43.083427,135.225372 27.199728,144.656342 11.365362,154.169449 
	C7.821488,156.298569 4.450549,158.715530 0.999999,161.000000 
	C1.000000,107.743607 1.000000,54.487213 1.000000,1.000000 
	C46.357151,1.000000 91.714691,1.000000 137.872192,1.253205 
	C134.794556,3.828474 130.919586,6.154898 127.038948,8.471859 
	C109.624641,18.869190 92.205276,29.258051 74.795418,39.662815 
	C69.273422,42.962963 65.884323,47.224567 65.908134,54.277374 
	C66.079659,105.089493 66.067673,155.902649 65.920052,206.714920 
	C65.900101,213.579437 68.914864,217.947968 74.549416,221.183655 
	C84.961151,227.162674 95.616394,232.795837 105.554329,239.487671 
	C110.301910,242.684525 113.458282,241.570450 117.414780,239.125198 
	C124.447678,234.778671 131.584976,230.601059 139.052368,226.128937 
	C124.043617,217.202454 109.031448,208.273926 94.159554,199.428833 
	C94.159554,153.225677 94.159554,107.274040 94.159554,61.468746 
	C110.174629,52.107090 125.969170,42.782284 141.904877,33.705311 
	C143.452682,32.823677 146.338058,32.675171 147.816483,33.536148 
	C162.947586,42.347858 177.865875,51.524651 192.981308,60.363987 
	C195.383255,61.768620 196.113403,63.191284 196.054245,65.794418 
	C195.895294,72.787956 196.756592,79.891350 195.813904,86.759102 
	C194.555695,95.925499 197.482559,101.771767 205.904907,105.557411 
	C211.673965,108.150482 217.042984,111.633568 222.999969,114.946304 
	C222.999969,94.127251 222.758301,74.132683 223.132477,54.149635 
	C223.261520,47.257107 220.115173,43.142460 214.763245,39.980625 
	C196.046860,28.923269 177.276337,17.957228 158.595749,6.839925 
	C155.870544,5.218085 153.522537,2.962397 151.000000,1.000001 
	C573.000000,1.000000 995.000000,1.000000 1417.000000,1.000000 
	C1417.000000,38.095211 1417.000000,75.083725 1416.671387,112.468048 
	C1415.841675,112.443993 1415.288086,112.072891 1414.847412,111.597145 
	C1400.862671,96.503059 1383.195190,90.494072 1363.329834,93.367516 
	C1319.564209,99.697990 1300.832397,145.783188 1317.817871,181.223312 
	C1328.594849,203.709549 1346.994629,215.278580 1372.536743,215.106857 
	C1388.201050,215.001541 1401.424072,209.871964 1412.572021,198.991837 
	C1413.826416,197.767548 1415.513550,196.986572 1417.000000,196.000000 
	C1417.000000,229.988846 1417.000000,263.977692 1417.000000,298.000000 
	C1016.975952,298.000000 616.951843,298.000000 216.128387,297.750702 
	C224.568665,291.822632 233.756302,286.056976 243.060684,280.486298 
	C255.727875,272.902313 268.508453,265.507843 281.189484,257.946686 
	C285.815308,255.188522 288.151398,251.332321 288.099274,245.548553 
	C287.869476,220.054184 287.806213,194.554047 288.139923,169.061966 
	C288.220612,162.898514 285.610535,159.097183 280.986725,156.022751 
	C278.157227,154.141388 275.215332,152.423386 272.278320,150.710236 
	C253.914780,139.998962 235.505051,129.366470 217.174866,118.598518 
	C195.346085,105.775345 173.565964,92.868988 151.800385,79.938728 
	C146.031662,76.511703 140.362305,77.503822 135.063858,80.520241 
	C124.066376,86.781097 113.240196,93.347565 102.448776,99.960045 
	C100.989395,100.854286 99.195724,102.711372 99.154121,104.168236 
	C98.866577,114.236748 99.002701,124.317360 99.002701,134.816086 
	C100.987686,133.915176 102.523476,133.380432 103.896286,132.569702 
	C116.188026,125.310669 128.472061,118.037949 140.704910,110.680374 
	C143.158920,109.204391 144.913101,108.668137 147.678040,110.760635 
	C151.779404,113.864540 156.635010,115.957932 161.104721,118.591484 
	C177.458664,128.227219 193.763947,137.945602 210.129105,147.562164 
	C226.633362,157.260483 243.186996,166.874771 259.998322,176.688919 
	C259.998322,192.250916 259.549805,208.091827 260.169617,223.890823 
	C260.530945,233.100357 259.955841,240.774231 249.257935,243.322647 
	C248.976562,243.389664 248.796677,243.805115 248.517532,243.970245 
	C236.225662,251.241333 223.947327,258.535980 211.595840,265.704498 
	C210.555283,266.308411 208.693695,266.635864 207.766541,266.112366 
	C201.693512,262.683350 195.890259,258.768829 189.768890,255.435257 
	C183.764420,252.165314 178.394394,246.234192 170.352219,252.698532 
	C164.239929,257.611603 156.860123,260.947784 149.665695,265.209869 
	C167.554962,275.720520 184.868576,285.881073 202.144974,296.104523 
	C202.632980,296.393311 202.723923,297.353088 203.000000,298.000000 
M1083.000000,163.500000 
	C1083.000122,177.164169 1082.985107,190.828369 1083.006836,204.492493 
	C1083.017700,211.259644 1085.561279,214.029739 1091.621216,213.995895 
	C1097.428345,213.963470 1099.987549,211.194763 1099.990967,204.750977 
	C1100.008911,170.923676 1099.964844,137.096268 1100.049194,103.269173 
	C1100.058350,99.617607 1099.466553,96.043175 1095.786255,95.183586 
	C1092.694580,94.461479 1088.727173,94.574272 1085.997437,95.974594 
	C1082.779175,97.625633 1080.419434,101.006058 1077.786743,103.732521 
	C1070.159058,111.631607 1062.614746,119.611176 1054.970703,127.494278 
	C1050.620728,131.980392 1046.139893,136.339569 1041.804077,140.669846 
	C1040.730591,139.937119 1040.257935,139.721725 1039.926025,139.372528 
	C1028.240112,127.076271 1016.599976,114.736305 1004.866089,102.486115 
	C1002.462219,99.976570 999.956787,97.426842 997.076538,95.538887 
	C990.456543,91.199455 983.061707,95.109261 983.042236,102.944420 
	C982.957092,137.271423 983.010254,171.598770 982.998535,205.925980 
	C982.997009,210.422501 985.184875,213.204819 989.563110,213.911255 
	C994.791321,214.754837 998.645142,212.695374 999.848450,208.316299 
	C1000.586914,205.628479 1000.939880,202.753006 1000.950500,199.959824 
	C1001.035950,177.464157 1000.998657,154.968018 1000.999023,132.472031 
	C1000.999084,130.720291 1000.999084,128.968567 1000.999084,125.944687 
	C1003.182068,127.912575 1004.423950,128.908096 1005.522827,130.042206 
	C1014.786987,139.603470 1023.971924,149.242111 1033.290161,158.750214 
	C1039.194702,164.775146 1044.744751,164.827377 1050.561890,158.893112 
	C1059.181519,150.100098 1067.679321,141.187256 1076.175903,132.274933 
	C1078.153564,130.200439 1079.917847,127.922432 1081.780151,125.738068 
	C1082.186768,125.902817 1082.593384,126.067574 1083.000000,126.232330 
	C1083.000000,138.321548 1083.000000,150.410782 1083.000000,163.500000 
M556.886108,211.809784 
	C571.815186,216.514511 586.953613,217.323074 601.274475,210.687256 
	C628.312317,198.158813 640.577942,173.698547 636.651611,144.390198 
	C632.733093,115.140663 608.218262,92.259132 576.977112,92.900864 
	C539.335754,93.674042 512.597229,126.494888 518.554016,164.664215 
	C522.054993,187.097305 535.274536,202.605530 556.886108,211.809784 
M818.129639,122.681503 
	C810.114441,135.824539 808.354919,150.237076 810.615906,165.047058 
	C815.104675,194.449310 841.890991,216.448837 871.598999,215.218811 
	C890.779602,214.424652 905.478027,206.506836 916.966492,191.909561 
	C926.421692,179.895721 929.888794,165.984100 929.065552,150.720322 
	C927.739380,126.135307 916.020691,108.057732 894.085266,97.842255 
	C866.572144,85.029175 834.075867,96.052185 818.129639,122.681503 
M1226.488770,178.000000 
	C1228.819702,178.000107 1231.150635,177.993179 1233.481567,178.001648 
	C1239.980469,178.025284 1239.915039,178.028809 1240.017700,184.736374 
	C1240.126953,191.876831 1239.874146,199.075058 1240.715942,206.136429 
	C1241.464478,212.416779 1245.084595,214.597229 1251.188354,213.971497 
	C1255.834106,213.495209 1257.993164,210.429932 1257.995850,204.194122 
	C1258.006104,180.051804 1258.000732,155.909470 1257.999756,131.767151 
	C1257.999268,122.110229 1258.105835,112.451607 1257.956787,102.796944 
	C1257.840332,95.249016 1250.713013,91.388405 1244.207275,95.303436 
	C1242.241333,96.486542 1240.458984,98.070175 1238.833496,99.709427 
	C1206.256348,132.563705 1173.712402,165.451050 1141.168701,198.338394 
	C1137.908447,201.633087 1136.877075,206.845306 1138.838379,210.090103 
	C1141.455078,214.419266 1145.652832,214.690186 1149.823853,213.660309 
	C1151.914795,213.144028 1153.908447,211.477417 1155.518799,209.895798 
	C1165.020874,200.562302 1174.469482,191.171112 1183.768677,181.636078 
	C1186.284790,179.056183 1188.876221,177.862106 1192.527710,177.928482 
	C1203.512939,178.128174 1214.504272,178.000183 1226.488770,178.000000 
M475.266693,144.601959 
	C475.838623,138.527756 477.034515,132.435562 476.859985,126.382881 
	C476.418976,111.090096 459.758240,94.396202 444.488739,94.101791 
	C425.518646,93.736023 406.535950,93.954704 387.559296,94.048447 
	C382.063110,94.075592 379.070435,96.945633 379.057648,102.344513 
	C378.976196,136.802780 378.970673,171.261459 379.062836,205.719666 
	C379.077942,211.370468 382.337067,214.121582 387.973969,213.994080 
	C393.263580,213.874435 395.948883,211.074570 395.982544,205.411209 
	C396.038910,195.922958 396.192505,186.428528 395.916321,176.948013 
	C395.785309,172.451813 397.126923,170.899475 401.809845,170.889969 
	C416.261566,170.860672 430.712738,170.346832 445.162689,169.965378 
	C446.635834,169.926468 448.138336,169.649994 449.560760,169.248398 
	C462.166138,165.689331 470.535004,157.579971 475.266693,144.601959 
M690.500122,94.000000 
	C684.669922,94.001717 678.838440,93.928543 673.009827,94.025833 
	C666.950806,94.126953 664.018433,97.098244 664.009827,102.899406 
	C664.001831,108.277084 666.944885,110.969414 673.022705,110.988731 
	C684.349792,111.024742 695.677063,110.998260 707.004272,111.000473 
	C714.994751,111.002037 714.998718,111.004028 714.999268,118.763985 
	C715.001343,147.082016 714.988159,175.400055 715.009216,203.718063 
	C715.014709,211.032806 717.502014,213.989487 723.480713,213.996307 
	C729.654236,214.003342 731.994507,211.250885 731.996643,203.896683 
	C732.005188,174.745773 732.060608,145.594604 731.932983,116.444252 
	C731.915222,112.393738 733.110718,110.850037 737.319763,110.925072 
	C749.476013,111.141769 761.639343,111.067894 773.797974,110.932961 
	C775.841797,110.910271 778.155884,110.472366 779.858398,109.430801 
	C783.808960,107.013855 783.694580,102.815689 782.605530,99.140892 
	C781.533752,95.524406 778.511047,93.933998 774.454956,93.948906 
	C746.803589,94.050575 719.151733,94.000862 690.500122,94.000000 
z"/>
<path fill="#F4B519" opacity="1.000000" stroke="none" 
	d="
M203.463181,298.000000 
	C202.723923,297.353088 202.632980,296.393311 202.144974,296.104523 
	C184.868576,285.881073 167.554962,275.720520 149.665695,265.209869 
	C156.860123,260.947784 164.239929,257.611603 170.352219,252.698532 
	C178.394394,246.234192 183.764420,252.165314 189.768890,255.435257 
	C195.890259,258.768829 201.693512,262.683350 207.766541,266.112366 
	C208.693695,266.635864 210.555283,266.308411 211.595840,265.704498 
	C223.947327,258.535980 236.225662,251.241333 248.517532,243.970245 
	C248.796677,243.805115 248.976562,243.389664 249.257935,243.322647 
	C259.955841,240.774231 260.530945,233.100357 260.169617,223.890823 
	C259.549805,208.091827 259.998322,192.250916 259.998322,176.688919 
	C243.186996,166.874771 226.633362,157.260483 210.129105,147.562164 
	C193.763947,137.945602 177.458664,128.227219 161.104721,118.591484 
	C156.635010,115.957932 151.779404,113.864540 147.678040,110.760635 
	C144.913101,108.668137 143.158920,109.204391 140.704910,110.680374 
	C128.472061,118.037949 116.188026,125.310669 103.896286,132.569702 
	C102.523476,133.380432 100.987686,133.915176 99.002701,134.816086 
	C99.002701,124.317360 98.866577,114.236748 99.154121,104.168236 
	C99.195724,102.711372 100.989395,100.854286 102.448776,99.960045 
	C113.240196,93.347565 124.066376,86.781097 135.063858,80.520241 
	C140.362305,77.503822 146.031662,76.511703 151.800385,79.938728 
	C173.565964,92.868988 195.346085,105.775345 217.174866,118.598518 
	C235.505051,129.366470 253.914780,139.998962 272.278320,150.710236 
	C275.215332,152.423386 278.157227,154.141388 280.986725,156.022751 
	C285.610535,159.097183 288.220612,162.898514 288.139923,169.061966 
	C287.806213,194.554047 287.869476,220.054184 288.099274,245.548553 
	C288.151398,251.332321 285.815308,255.188522 281.189484,257.946686 
	C268.508453,265.507843 255.727875,272.902313 243.060684,280.486298 
	C233.756302,286.056976 224.568665,291.822632 215.664505,297.750702 
	C211.975449,298.000000 207.950912,298.000000 203.463181,298.000000 
z"/>
<path fill="#F4B519" opacity="1.000000" stroke="none" 
	d="
M150.536819,1.000001 
	C153.522537,2.962397 155.870544,5.218085 158.595749,6.839925 
	C177.276337,17.957228 196.046860,28.923269 214.763245,39.980625 
	C220.115173,43.142460 223.261520,47.257107 223.132477,54.149635 
	C222.758301,74.132683 222.999969,94.127251 222.999969,114.946304 
	C217.042984,111.633568 211.673965,108.150482 205.904907,105.557411 
	C197.482559,101.771767 194.555695,95.925499 195.813904,86.759102 
	C196.756592,79.891350 195.895294,72.787956 196.054245,65.794418 
	C196.113403,63.191284 195.383255,61.768620 192.981308,60.363987 
	C177.865875,51.524651 162.947586,42.347858 147.816483,33.536148 
	C146.338058,32.675171 143.452682,32.823677 141.904877,33.705311 
	C125.969170,42.782284 110.174629,52.107090 94.159554,61.468746 
	C94.159554,107.274040 94.159554,153.225677 94.159554,199.428833 
	C109.031448,208.273926 124.043617,217.202454 139.052368,226.128937 
	C131.584976,230.601059 124.447678,234.778671 117.414780,239.125198 
	C113.458282,241.570450 110.301910,242.684525 105.554329,239.487671 
	C95.616394,232.795837 84.961151,227.162674 74.549416,221.183655 
	C68.914864,217.947968 65.900101,213.579437 65.920052,206.714920 
	C66.067673,155.902649 66.079659,105.089493 65.908134,54.277374 
	C65.884323,47.224567 69.273422,42.962963 74.795418,39.662815 
	C92.205276,29.258051 109.624641,18.869190 127.038948,8.471859 
	C130.919586,6.154898 134.794556,3.828474 138.336060,1.253205 
	C142.024551,1.000000 146.049088,1.000000 150.536819,1.000001 
z"/>
<path fill="#F4B519" opacity="1.000000" stroke="none" 
	d="
M0.999999,161.468658 
	C4.450549,158.715530 7.821488,156.298569 11.365362,154.169449 
	C27.199728,144.656342 43.083427,135.225372 59.999622,125.138458 
	C59.999622,133.343338 59.167931,140.661499 60.206051,147.704010 
	C61.563057,156.909775 57.182636,161.260620 49.744255,164.827332 
	C43.182095,167.973892 37.033009,171.996628 30.792852,175.783005 
	C29.927582,176.308014 29.082413,177.694519 29.077368,178.686539 
	C28.977440,198.340897 29.002888,217.995895 29.002888,237.265213 
	C45.290855,246.873901 61.208153,256.318787 77.222260,265.596619 
	C78.378403,266.266418 80.585541,266.312469 81.722488,265.650208 
	C107.102905,250.866180 132.412231,235.959824 157.710999,221.035919 
	C169.863678,213.867020 182.005600,206.677322 194.029327,199.296570 
	C195.143082,198.612885 195.902878,196.480255 195.916641,195.011887 
	C196.053925,180.348831 196.000000,165.683975 196.000015,151.019638 
	C196.000015,149.424438 196.000015,147.829239 196.000015,145.308762 
	C205.171875,150.667847 213.562592,155.489365 221.822632,160.525253 
	C222.627701,161.016098 222.945374,162.827667 222.951309,164.028839 
	C223.025253,179.026093 222.984955,194.023865 223.007721,209.021454 
	C223.015656,214.246719 219.973511,217.564453 215.896896,219.991058 
	C188.421158,236.346069 160.917435,252.654510 133.373901,268.895111 
	C117.854546,278.045807 102.239311,287.033813 86.682716,296.121613 
	C86.146118,296.435059 85.776321,297.034088 85.664383,297.750000 
	C81.975456,298.000000 77.950912,298.000000 73.798660,297.750854 
	C64.442619,291.831268 55.098576,286.339325 46.012394,280.449585 
	C31.464777,271.019714 15.089961,264.485443 2.015562,252.717636 
	C1.875341,252.591431 1.347105,252.896347 1.000000,253.000000 
	C1.000000,222.645767 1.000000,192.291550 0.999999,161.468658 
z"/>
<path fill="#000000" opacity="1.000000" stroke="none" 
	d="
M1417.000000,121.000000 
	C1417.000000,142.687561 1417.000000,164.375122 1416.665649,186.458740 
	C1409.218506,180.538879 1406.341919,180.599350 1398.322021,187.233078 
	C1381.009644,201.553177 1357.759888,200.427002 1342.004883,184.505081 
	C1327.425903,169.771683 1325.469849,145.921463 1337.625000,129.094772 
	C1348.588623,113.917694 1368.333008,106.212692 1385.972900,114.007919 
	C1391.474976,116.439209 1396.279785,120.490456 1401.307495,123.940178 
	C1405.828979,127.042435 1410.425781,126.794868 1414.330933,123.051933 
	C1415.136230,122.279953 1416.105957,121.679497 1417.000000,121.000000 
z"/>
<path fill="#212121" opacity="1.000000" stroke="none" 
	d="
M1417.000000,120.555840 
	C1416.105957,121.679497 1415.136230,122.279953 1414.330933,123.051933 
	C1410.425781,126.794868 1405.828979,127.042435 1401.307495,123.940178 
	C1396.279785,120.490456 1391.474976,116.439209 1385.972900,114.007919 
	C1368.333008,106.212692 1348.588623,113.917694 1337.625000,129.094772 
	C1325.469849,145.921463 1327.425903,169.771683 1342.004883,184.505081 
	C1357.759888,200.427002 1381.009644,201.553177 1398.322021,187.233078 
	C1406.341919,180.599350 1409.218506,180.538879 1416.665649,186.927399 
	C1417.000000,189.700012 1417.000000,192.400024 1417.000000,195.550018 
	C1415.513550,196.986572 1413.826416,197.767548 1412.572021,198.991837 
	C1401.424072,209.871964 1388.201050,215.001541 1372.536743,215.106857 
	C1346.994629,215.278580 1328.594849,203.709549 1317.817871,181.223312 
	C1300.832397,145.783188 1319.564209,99.697990 1363.329834,93.367516 
	C1383.195190,90.494072 1400.862671,96.503059 1414.847412,111.597145 
	C1415.288086,112.072891 1415.841675,112.443993 1416.671387,112.931931 
	C1417.000000,115.370560 1417.000000,117.741112 1417.000000,120.555840 
z"/>
<path fill="#000000" opacity="1.000000" stroke="none" 
	d="
M1.000000,253.468658 
	C1.347105,252.896347 1.875341,252.591431 2.015562,252.717636 
	C15.089961,264.485443 31.464777,271.019714 46.012394,280.449585 
	C55.098576,286.339325 64.442619,291.831268 73.335480,297.750854 
	C49.090088,298.000000 25.180176,298.000000 1.000000,298.000000 
	C1.000000,283.313538 1.000000,268.625427 1.000000,253.468658 
z"/>
<path fill="#212121" opacity="1.000000" stroke="none" 
	d="
M1083.000000,163.000000 
	C1083.000000,150.410782 1083.000000,138.321548 1083.000000,126.232330 
	C1082.593384,126.067574 1082.186768,125.902817 1081.780151,125.738068 
	C1079.917847,127.922432 1078.153564,130.200439 1076.175903,132.274933 
	C1067.679321,141.187256 1059.181519,150.100098 1050.561890,158.893112 
	C1044.744751,164.827377 1039.194702,164.775146 1033.290161,158.750214 
	C1023.971924,149.242111 1014.786987,139.603470 1005.522827,130.042206 
	C1004.423950,128.908096 1003.182068,127.912575 1000.999084,125.944687 
	C1000.999084,128.968567 1000.999084,130.720291 1000.999023,132.472031 
	C1000.998657,154.968018 1001.035950,177.464157 1000.950500,199.959824 
	C1000.939880,202.753006 1000.586914,205.628479 999.848450,208.316299 
	C998.645142,212.695374 994.791321,214.754837 989.563110,213.911255 
	C985.184875,213.204819 982.997009,210.422501 982.998535,205.925980 
	C983.010254,171.598770 982.957092,137.271423 983.042236,102.944420 
	C983.061707,95.109261 990.456543,91.199455 997.076538,95.538887 
	C999.956787,97.426842 1002.462219,99.976570 1004.866089,102.486115 
	C1016.599976,114.736305 1028.240112,127.076271 1039.926025,139.372528 
	C1040.257935,139.721725 1040.730591,139.937119 1041.804077,140.669846 
	C1046.139893,136.339569 1050.620728,131.980392 1054.970703,127.494278 
	C1062.614746,119.611176 1070.159058,111.631607 1077.786743,103.732521 
	C1080.419434,101.006058 1082.779175,97.625633 1085.997437,95.974594 
	C1088.727173,94.574272 1092.694580,94.461479 1095.786255,95.183586 
	C1099.466553,96.043175 1100.058350,99.617607 1100.049194,103.269173 
	C1099.964844,137.096268 1100.008911,170.923676 1099.990967,204.750977 
	C1099.987549,211.194763 1097.428345,213.963470 1091.621216,213.995895 
	C1085.561279,214.029739 1083.017700,211.259644 1083.006836,204.492493 
	C1082.985107,190.828369 1083.000122,177.164169 1083.000000,163.000000 
z"/>
<path fill="#212121" opacity="1.000000" stroke="none" 
	d="
M556.524292,211.667679 
	C535.274536,202.605530 522.054993,187.097305 518.554016,164.664215 
	C512.597229,126.494888 539.335754,93.674042 576.977112,92.900864 
	C608.218262,92.259132 632.733093,115.140663 636.651611,144.390198 
	C640.577942,173.698547 628.312317,198.158813 601.274475,210.687256 
	C586.953613,217.323074 571.815186,216.514511 556.524292,211.667679 
M588.785400,112.442368 
	C576.012939,108.893356 563.904358,111.247887 553.758118,119.096565 
	C529.441467,137.906784 530.602539,170.011963 552.000366,187.587845 
	C564.252625,197.651672 581.968323,200.343292 594.988525,193.477188 
	C612.734619,184.118912 621.244507,168.097641 619.682251,151.271149 
	C617.945251,132.561493 607.704285,119.231812 588.785400,112.442368 
z"/>
<path fill="#212121" opacity="1.000000" stroke="none" 
	d="
M818.304688,122.358932 
	C834.075867,96.052185 866.572144,85.029175 894.085266,97.842255 
	C916.020691,108.057732 927.739380,126.135307 929.065552,150.720322 
	C929.888794,165.984100 926.421692,179.895721 916.966492,191.909561 
	C905.478027,206.506836 890.779602,214.424652 871.598999,215.218811 
	C841.890991,216.448837 815.104675,194.449310 810.615906,165.047058 
	C808.354919,150.237076 810.114441,135.824539 818.304688,122.358932 
M839.487671,125.011345 
	C827.462708,137.122498 823.571594,158.408066 833.958679,176.244293 
	C842.470703,190.860825 861.218384,200.120850 877.728638,196.576828 
	C900.194763,191.754349 915.381592,169.231064 910.953308,146.654877 
	C907.688416,130.009842 897.996460,118.134697 881.760925,112.948097 
	C865.698242,107.816696 851.631409,112.388069 839.487671,125.011345 
z"/>
<path fill="#212121" opacity="1.000000" stroke="none" 
	d="
M1225.990967,178.000000 
	C1214.504272,178.000183 1203.512939,178.128174 1192.527710,177.928482 
	C1188.876221,177.862106 1186.284790,179.056183 1183.768677,181.636078 
	C1174.469482,191.171112 1165.020874,200.562302 1155.518799,209.895798 
	C1153.908447,211.477417 1151.914795,213.144028 1149.823853,213.660309 
	C1145.652832,214.690186 1141.455078,214.419266 1138.838379,210.090103 
	C1136.877075,206.845306 1137.908447,201.633087 1141.168701,198.338394 
	C1173.712402,165.451050 1206.256348,132.563705 1238.833496,99.709427 
	C1240.458984,98.070175 1242.241333,96.486542 1244.207275,95.303436 
	C1250.713013,91.388405 1257.840332,95.249016 1257.956787,102.796944 
	C1258.105835,112.451607 1257.999268,122.110229 1257.999756,131.767151 
	C1258.000732,155.909470 1258.006104,180.051804 1257.995850,204.194122 
	C1257.993164,210.429932 1255.834106,213.495209 1251.188354,213.971497 
	C1245.084595,214.597229 1241.464478,212.416779 1240.715942,206.136429 
	C1239.874146,199.075058 1240.126953,191.876831 1240.017700,184.736374 
	C1239.915039,178.028809 1239.980469,178.025284 1233.481567,178.001648 
	C1231.150635,177.993179 1228.819702,178.000107 1225.990967,178.000000 
M1224.500000,140.999268 
	C1218.234497,147.296799 1211.968994,153.594315 1204.660400,160.940247 
	C1216.538574,160.940247 1226.812500,161.059784 1237.073730,160.753113 
	C1238.086426,160.722855 1239.782593,158.122421 1239.859009,156.647461 
	C1240.177246,150.499329 1239.997925,144.325378 1239.999878,138.160904 
	C1240.000977,134.463455 1240.000000,130.766006 1240.000000,127.068550 
	C1239.451294,126.848763 1238.902466,126.628983 1238.353760,126.409195 
	C1233.902466,131.105896 1229.451294,135.802597 1224.500000,140.999268 
z"/>
<path fill="#212121" opacity="1.000000" stroke="none" 
	d="
M475.151581,144.981812 
	C470.535004,157.579971 462.166138,165.689331 449.560760,169.248398 
	C448.138336,169.649994 446.635834,169.926468 445.162689,169.965378 
	C430.712738,170.346832 416.261566,170.860672 401.809845,170.889969 
	C397.126923,170.899475 395.785309,172.451813 395.916321,176.948013 
	C396.192505,186.428528 396.038910,195.922958 395.982544,205.411209 
	C395.948883,211.074570 393.263580,213.874435 387.973969,213.994080 
	C382.337067,214.121582 379.077942,211.370468 379.062836,205.719666 
	C378.970673,171.261459 378.976196,136.802780 379.057648,102.344513 
	C379.070435,96.945633 382.063110,94.075592 387.559296,94.048447 
	C406.535950,93.954704 425.518646,93.736023 444.488739,94.101791 
	C459.758240,94.396202 476.418976,111.090096 476.859985,126.382881 
	C477.034515,132.435562 475.838623,138.527756 475.151581,144.981812 
M449.512482,150.210480 
	C458.141357,145.279327 461.369537,134.321564 458.632233,125.542221 
	C455.829132,116.551849 448.147430,111.132263 437.603729,111.031265 
	C425.452179,110.914871 413.296936,111.117752 401.147003,110.936165 
	C397.255737,110.878014 395.859924,112.178185 395.934784,116.112526 
	C396.134155,126.596634 396.143890,137.089935 395.930298,147.573517 
	C395.847321,151.646347 397.144714,153.149506 401.332275,153.075394 
	C413.481140,152.860397 425.640778,153.183746 437.786194,152.887268 
	C441.490479,152.796844 445.162445,151.382309 449.512482,150.210480 
z"/>
<path fill="#212121" opacity="1.000000" stroke="none" 
	d="
M691.000061,94.000000 
	C719.151733,94.000862 746.803589,94.050575 774.454956,93.948906 
	C778.511047,93.933998 781.533752,95.524406 782.605530,99.140892 
	C783.694580,102.815689 783.808960,107.013855 779.858398,109.430801 
	C778.155884,110.472366 775.841797,110.910271 773.797974,110.932961 
	C761.639343,111.067894 749.476013,111.141769 737.319763,110.925072 
	C733.110718,110.850037 731.915222,112.393738 731.932983,116.444252 
	C732.060608,145.594604 732.005188,174.745773 731.996643,203.896683 
	C731.994507,211.250885 729.654236,214.003342 723.480713,213.996307 
	C717.502014,213.989487 715.014709,211.032806 715.009216,203.718063 
	C714.988159,175.400055 715.001343,147.082016 714.999268,118.763985 
	C714.998718,111.004028 714.994751,111.002037 707.004272,111.000473 
	C695.677063,110.998260 684.349792,111.024742 673.022705,110.988731 
	C666.944885,110.969414 664.001831,108.277084 664.009827,102.899406 
	C664.018433,97.098244 666.950806,94.126953 673.009827,94.025833 
	C678.838440,93.928543 684.669922,94.001717 691.000061,94.000000 
z"/>
<path fill="#000000" opacity="1.000000" stroke="none" 
	d="
M589.166626,112.581787 
	C607.704285,119.231812 617.945251,132.561493 619.682251,151.271149 
	C621.244507,168.097641 612.734619,184.118912 594.988525,193.477188 
	C581.968323,200.343292 564.252625,197.651672 552.000366,187.587845 
	C530.602539,170.011963 529.441467,137.906784 553.758118,119.096565 
	C563.904358,111.247887 576.012939,108.893356 589.166626,112.581787 
z"/>
<path fill="#000000" opacity="1.000000" stroke="none" 
	d="
M839.740479,124.758789 
	C851.631409,112.388069 865.698242,107.816696 881.760925,112.948097 
	C897.996460,118.134697 907.688416,130.009842 910.953308,146.654877 
	C915.381592,169.231064 900.194763,191.754349 877.728638,196.576828 
	C861.218384,200.120850 842.470703,190.860825 833.958679,176.244293 
	C823.571594,158.408066 827.462708,137.122498 839.740479,124.758789 
z"/>
<path fill="#000000" opacity="1.000000" stroke="none" 
	d="
M1224.750000,140.749268 
	C1229.451294,135.802597 1233.902466,131.105896 1238.353760,126.409195 
	C1238.902466,126.628983 1239.451294,126.848763 1240.000000,127.068550 
	C1240.000000,130.766006 1240.000977,134.463455 1239.999878,138.160904 
	C1239.997925,144.325378 1240.177246,150.499329 1239.859009,156.647461 
	C1239.782593,158.122421 1238.086426,160.722855 1237.073730,160.753113 
	C1226.812500,161.059784 1216.538574,160.940247 1204.660400,160.940247 
	C1211.968994,153.594315 1218.234497,147.296799 1224.750000,140.749268 
z"/>
<path fill="#000000" opacity="1.000000" stroke="none" 
	d="
M449.180847,150.392334 
	C445.162445,151.382309 441.490479,152.796844 437.786194,152.887268 
	C425.640778,153.183746 413.481140,152.860397 401.332275,153.075394 
	C397.144714,153.149506 395.847321,151.646347 395.930298,147.573517 
	C396.143890,137.089935 396.134155,126.596634 395.934784,116.112526 
	C395.859924,112.178185 397.255737,110.878014 401.147003,110.936165 
	C413.296936,111.117752 425.452179,110.914871 437.603729,111.031265 
	C448.147430,111.132263 455.829132,116.551849 458.632233,125.542221 
	C461.369537,134.321564 458.141357,145.279327 449.180847,150.392334 
z"/>
</svg>