<svg version="1.1" id="Layer_1" xmlns="http://www.w3.org/2000/svg" xmlns:xlink="http://www.w3.org/1999/xlink" x="0px" y="0px"
	 width="100%" viewBox="0 0 533 538" enable-background="new 0 0 533 538" xml:space="preserve">
<path fill="#000000" opacity="1.000000" stroke="none" 
	d="
M1.000000,296.000000 
	C1.000000,197.744659 1.000000,99.489311 1.000000,1.000000 
	C86.354088,1.000000 171.708389,1.000000 257.866058,1.255229 
	C258.219879,1.974752 257.848450,2.576367 257.309296,2.883151 
	C245.466125,9.621808 233.547531,16.229677 221.757370,23.059336 
	C192.553940,39.975933 163.369095,56.925533 134.263535,74.009651 
	C126.322067,78.671059 121.943657,85.554543 121.951904,95.193184 
	C122.031815,188.515030 121.994339,281.836975 122.035263,375.158875 
	C122.036171,377.239716 122.429482,379.349640 122.871284,381.395996 
	C125.131149,391.863342 133.692352,396.253510 141.893539,400.986908 
	C155.802505,409.014679 169.638382,417.171753 183.629593,425.053284 
	C190.556213,428.955231 197.760437,432.364410 204.943420,436.252136 
	C205.403244,436.352722 205.758728,436.197754 206.444824,436.020264 
	C208.152512,435.539337 209.642593,435.284058 210.888870,434.590637 
	C221.369431,428.759338 231.872589,422.962616 242.222336,416.905029 
	C246.502045,414.400146 250.424240,411.284393 255.009857,408.098541 
	C251.858246,405.900421 249.828064,404.264709 247.601547,402.965424 
	C224.341965,389.391846 201.087158,375.809021 177.727142,362.409882 
	C174.443939,360.526672 172.874847,358.690369 172.885422,354.578766 
	C173.049057,290.931274 172.999741,227.283249 172.999741,163.635330 
	C172.999741,147.140198 172.954208,130.644714 173.077377,114.150497 
	C173.088455,112.665520 173.759537,110.466194 174.849380,109.817924 
	C188.230377,101.858597 201.726654,94.091797 215.233292,86.345261 
	C231.413177,77.065521 247.802750,68.132812 263.707336,58.405346 
	C267.447906,56.117558 269.791779,56.627853 272.790222,58.372540 
	C282.462189,64.000397 292.092804,69.699326 301.767578,75.322357 
	C320.983704,86.490929 340.133972,97.778694 359.531494,108.623566 
	C362.666748,110.376442 363.045105,112.168915 363.035065,115.088470 
	C362.967743,134.749115 363.062531,154.410507 362.930878,174.070511 
	C362.911682,176.933182 363.824432,178.448608 366.304871,179.853622 
	C378.441528,186.728226 390.413208,193.893707 402.535858,200.793579 
	C405.914215,202.716461 409.608826,204.083725 413.427338,205.828827 
	C413.772888,204.247940 413.968719,203.769730 413.968964,203.291428 
	C413.988831,166.135818 414.093445,128.979691 413.898651,91.825127 
	C413.866852,85.764793 410.705109,80.375229 405.707794,77.071777 
	C395.154724,70.095718 384.329681,63.504177 373.387177,57.149315 
	C344.492462,40.368706 315.459564,23.826096 286.531097,7.103275 
	C283.518188,5.361591 280.835754,3.048154 278.000000,1.000001 
	C363.265411,1.000000 448.530792,1.000000 534.000000,1.000000 
	C534.000000,98.687469 534.000000,196.375076 533.737000,294.867645 
	C530.066895,291.674500 527.361877,286.570496 523.124329,283.880524 
	C509.029755,274.933289 494.382202,266.857391 479.951202,258.439728 
	C463.838196,249.040955 447.766479,239.570847 431.609772,230.247910 
	C415.455872,220.926575 399.181793,211.813461 383.029205,202.489853 
	C366.874481,193.164978 350.819672,183.667282 334.694061,174.291779 
	C318.151428,164.673813 301.535065,155.182098 285.030090,145.500259 
	C274.634491,139.402191 264.323853,137.436798 253.196655,143.912506 
	C231.053070,156.799423 208.708679,169.341232 186.557419,182.215164 
	C185.211884,182.997162 184.127289,185.430389 184.109207,187.108109 
	C183.929626,203.766754 184.010696,220.428131 183.992630,237.088684 
	C183.988586,240.813354 185.369370,241.974365 188.841629,240.040878 
	C195.930603,236.093521 203.134048,232.347321 210.161743,228.295227 
	C229.273041,217.275925 248.317307,206.140350 267.616394,194.918137 
	C283.015381,203.937698 298.365417,213.024765 313.807495,221.952530 
	C342.168243,238.349152 370.576935,254.662857 398.977417,270.990662 
	C425.692657,286.349640 452.412994,301.699860 479.161957,316.999969 
	C481.949677,318.594574 483.119934,320.474670 483.101746,323.928284 
	C482.930481,356.415527 482.772644,388.906982 483.195343,421.389648 
	C483.278076,427.746552 481.167145,430.858826 475.870911,433.768158 
	C461.231842,441.809692 446.949677,450.498535 432.473236,458.839142 
	C418.703674,466.772522 404.897369,474.643921 391.013519,482.374207 
	C389.598328,483.162140 387.098969,483.563995 385.846710,482.846558 
	C370.083984,473.815430 354.571533,464.343536 338.735321,455.446747 
	C333.274445,452.378815 327.174957,451.038330 321.209930,455.289429 
	C317.915375,457.637329 314.316162,459.563538 310.820038,461.621674 
	C301.131256,467.325378 291.424500,472.998535 281.724854,478.683777 
	C281.373657,479.484070 281.022430,480.284332 280.671234,481.084625 
	C282.776123,482.387604 284.854065,483.736694 286.990723,484.985382 
	C295.394409,489.896729 303.794769,494.814484 312.236206,499.660492 
	C332.346802,511.205475 352.500977,522.674927 372.572327,534.287598 
	C374.608734,535.465759 376.201416,537.410828 378.000000,539.000000 
	C304.645782,539.000000 231.291550,539.000000 157.132996,538.742126 
	C161.378937,535.607056 166.445648,532.758179 171.476700,529.847778 
	C196.751907,515.226257 221.987717,500.536377 247.295456,485.971405 
	C272.886230,471.243591 298.578613,456.692261 324.164612,441.956207 
	C350.034851,427.056458 375.878967,412.109833 401.623871,396.995239 
	C408.606903,392.895599 413.854767,386.949890 413.920624,378.384094 
	C414.133362,350.724060 414.050476,323.061005 413.872009,295.400482 
	C413.861511,293.768890 412.397705,291.503021 410.948364,290.625763 
	C398.875275,283.318024 386.674683,276.218750 374.447418,269.169464 
	C370.946899,267.151337 367.233398,265.502625 363.000305,263.374146 
	C363.000305,265.485687 363.000305,266.476624 363.000305,267.467560 
	C363.000183,296.795593 362.986725,326.123657 363.022034,355.451630 
	C363.025330,358.183716 362.906219,360.429871 359.997314,362.066864 
	C341.761047,372.329102 323.628632,382.775879 305.463776,393.164978 
	C282.227814,406.454346 258.965973,419.698761 235.765839,433.050385 
	C207.500076,449.317261 179.222229,465.565918 151.135559,482.137634 
	C147.757401,484.130798 145.514053,483.501892 142.818832,481.955688 
	C131.840530,475.657715 120.897751,469.297852 109.924850,462.990417 
	C91.920822,452.641388 73.918800,442.288635 55.875740,432.007935 
	C53.093060,430.422455 51.877991,428.585083 51.896057,425.108917 
	C52.069324,391.782501 52.096218,358.454193 51.870968,325.128387 
	C51.844421,321.201141 53.208755,319.006592 56.284374,317.318268 
	C59.553963,315.523438 62.891041,313.846039 66.110664,311.966675 
	C79.106232,304.380859 92.067879,296.736938 105.427917,289.056183 
	C107.207733,287.656769 109.793945,286.334106 109.815033,284.971680 
	C110.087967,267.332825 110.019310,249.688187 109.932472,232.045517 
	C109.927811,231.096329 108.997025,230.151718 108.497353,229.204971 
	C107.629211,229.786987 106.761070,230.369003 105.515579,230.972931 
	C104.366867,231.205627 103.513359,231.269897 102.836479,231.649277 
	C92.958534,237.185547 83.065857,242.697357 73.252365,248.346466 
	C54.183468,259.323425 35.147861,270.358521 16.129728,281.423248 
	C10.293075,284.819031 4.927727,288.724365 2.734626,295.624207 
	C2.645403,295.904907 1.599942,295.881653 1.000000,296.000000 
z"/>
<path fill="#F7BB00" opacity="1.000000" stroke="none" 
	d="
M378.468384,539.000000 
	C376.201416,537.410828 374.608734,535.465759 372.572327,534.287598 
	C352.500977,522.674927 332.346802,511.205475 312.236206,499.660492 
	C303.794769,494.814484 295.394409,489.896729 286.990723,484.985382 
	C284.854065,483.736694 282.776123,482.387604 280.671234,481.084625 
	C281.022430,480.284332 281.373657,479.484070 281.724854,478.683777 
	C291.424500,472.998535 301.131256,467.325378 310.820038,461.621674 
	C314.316162,459.563538 317.915375,457.637329 321.209930,455.289429 
	C327.174957,451.038330 333.274445,452.378815 338.735321,455.446747 
	C354.571533,464.343536 370.083984,473.815430 385.846710,482.846558 
	C387.098969,483.563995 389.598328,483.162140 391.013519,482.374207 
	C404.897369,474.643921 418.703674,466.772522 432.473236,458.839142 
	C446.949677,450.498535 461.231842,441.809692 475.870911,433.768158 
	C481.167145,430.858826 483.278076,427.746552 483.195343,421.389648 
	C482.772644,388.906982 482.930481,356.415527 483.101746,323.928284 
	C483.119934,320.474670 481.949677,318.594574 479.161957,316.999969 
	C452.412994,301.699860 425.692657,286.349640 398.977417,270.990662 
	C370.576935,254.662857 342.168243,238.349152 313.807495,221.952530 
	C298.365417,213.024765 283.015381,203.937698 267.616394,194.918137 
	C248.317307,206.140350 229.273041,217.275925 210.161743,228.295227 
	C203.134048,232.347321 195.930603,236.093521 188.841629,240.040878 
	C185.369370,241.974365 183.988586,240.813354 183.992630,237.088684 
	C184.010696,220.428131 183.929626,203.766754 184.109207,187.108109 
	C184.127289,185.430389 185.211884,182.997162 186.557419,182.215164 
	C208.708679,169.341232 231.053070,156.799423 253.196655,143.912506 
	C264.323853,137.436798 274.634491,139.402191 285.030090,145.500259 
	C301.535065,155.182098 318.151428,164.673813 334.694061,174.291779 
	C350.819672,183.667282 366.874481,193.164978 383.029205,202.489853 
	C399.181793,211.813461 415.455872,220.926575 431.609772,230.247910 
	C447.766479,239.570847 463.838196,249.040955 479.951202,258.439728 
	C494.382202,266.857391 509.029755,274.933289 523.124329,283.880524 
	C527.361877,286.570496 530.066895,291.674500 533.737000,295.336304 
	C534.000000,347.687561 534.000000,400.375122 533.746826,453.196350 
	C529.856934,458.459473 526.713989,463.845917 520.812378,467.111908 
	C504.355835,476.218964 488.084412,485.662140 471.782562,495.046722 
	C447.603210,508.966217 423.456207,522.941956 399.326752,536.947754 
	C398.698914,537.312134 398.434082,538.301880 398.000000,539.000000 
	C391.645599,539.000000 385.291199,539.000000 378.468384,539.000000 
z"/>
<path fill="#F7BB00" opacity="1.000000" stroke="none" 
	d="
M277.531616,1.000001 
	C280.835754,3.048154 283.518188,5.361591 286.531097,7.103275 
	C315.459564,23.826096 344.492462,40.368706 373.387177,57.149315 
	C384.329681,63.504177 395.154724,70.095718 405.707794,77.071777 
	C410.705109,80.375229 413.866852,85.764793 413.898651,91.825127 
	C414.093445,128.979691 413.988831,166.135818 413.968964,203.291428 
	C413.968719,203.769730 413.772888,204.247940 413.427338,205.828827 
	C409.608826,204.083725 405.914215,202.716461 402.535858,200.793579 
	C390.413208,193.893707 378.441528,186.728226 366.304871,179.853622 
	C363.824432,178.448608 362.911682,176.933182 362.930878,174.070511 
	C363.062531,154.410507 362.967743,134.749115 363.035065,115.088470 
	C363.045105,112.168915 362.666748,110.376442 359.531494,108.623566 
	C340.133972,97.778694 320.983704,86.490929 301.767578,75.322357 
	C292.092804,69.699326 282.462189,64.000397 272.790222,58.372540 
	C269.791779,56.627853 267.447906,56.117558 263.707336,58.405346 
	C247.802750,68.132812 231.413177,77.065521 215.233292,86.345261 
	C201.726654,94.091797 188.230377,101.858597 174.849380,109.817924 
	C173.759537,110.466194 173.088455,112.665520 173.077377,114.150497 
	C172.954208,130.644714 172.999741,147.140198 172.999741,163.635330 
	C172.999741,227.283249 173.049057,290.931274 172.885422,354.578766 
	C172.874847,358.690369 174.443939,360.526672 177.727142,362.409882 
	C201.087158,375.809021 224.341965,389.391846 247.601547,402.965424 
	C249.828064,404.264709 251.858246,405.900421 255.009857,408.098541 
	C250.424240,411.284393 246.502045,414.400146 242.222336,416.905029 
	C231.872589,422.962616 221.369431,428.759338 210.888870,434.590637 
	C209.642593,435.284058 208.152512,435.539337 206.126160,436.005585 
	C205.264252,436.007782 205.051651,436.002167 204.839066,435.996552 
	C197.760437,432.364410 190.556213,428.955231 183.629593,425.053284 
	C169.638382,417.171753 155.802505,409.014679 141.893539,400.986908 
	C133.692352,396.253510 125.131149,391.863342 122.871284,381.395996 
	C122.429482,379.349640 122.036171,377.239716 122.035263,375.158875 
	C121.994339,281.836975 122.031815,188.515030 121.951904,95.193184 
	C121.943657,85.554543 126.322067,78.671059 134.263535,74.009651 
	C163.369095,56.925533 192.553940,39.975933 221.757370,23.059336 
	C233.547531,16.229677 245.466125,9.621808 257.309296,2.883151 
	C257.848450,2.576367 258.219879,1.974752 258.334717,1.255229 
	C264.354401,1.000000 270.708801,1.000000 277.531616,1.000001 
z"/>
<path fill="#F7BB00" opacity="1.000000" stroke="none" 
	d="
M105.042053,289.114471 
	C92.067879,296.736938 79.106232,304.380859 66.110664,311.966675 
	C62.891041,313.846039 59.553963,315.523438 56.284374,317.318268 
	C53.208755,319.006592 51.844421,321.201141 51.870968,325.128387 
	C52.096218,358.454193 52.069324,391.782501 51.896057,425.108917 
	C51.877991,428.585083 53.093060,430.422455 55.875740,432.007935 
	C73.918800,442.288635 91.920822,452.641388 109.924850,462.990417 
	C120.897751,469.297852 131.840530,475.657715 142.818832,481.955688 
	C145.514053,483.501892 147.757401,484.130798 151.135559,482.137634 
	C179.222229,465.565918 207.500076,449.317261 235.765839,433.050385 
	C258.965973,419.698761 282.227814,406.454346 305.463776,393.164978 
	C323.628632,382.775879 341.761047,372.329102 359.997314,362.066864 
	C362.906219,360.429871 363.025330,358.183716 363.022034,355.451630 
	C362.986725,326.123657 363.000183,296.795593 363.000305,267.467560 
	C363.000305,266.476624 363.000305,265.485687 363.000305,263.374146 
	C367.233398,265.502625 370.946899,267.151337 374.447418,269.169464 
	C386.674683,276.218750 398.875275,283.318024 410.948364,290.625763 
	C412.397705,291.503021 413.861511,293.768890 413.872009,295.400482 
	C414.050476,323.061005 414.133362,350.724060 413.920624,378.384094 
	C413.854767,386.949890 408.606903,392.895599 401.623871,396.995239 
	C375.878967,412.109833 350.034851,427.056458 324.164612,441.956207 
	C298.578613,456.692261 272.886230,471.243591 247.295456,485.971405 
	C221.987717,500.536377 196.751907,515.226257 171.476700,529.847778 
	C166.445648,532.758179 161.378937,535.607056 156.664337,538.742126 
	C150.645599,539.000000 144.291214,539.000000 137.803894,538.743408 
	C137.221191,538.022888 136.848511,537.425598 136.310379,537.114685 
	C122.965858,529.404968 109.614731,521.706543 96.242622,514.044739 
	C70.631462,499.370453 45.024426,484.688782 19.375511,470.080688 
	C12.529449,466.181549 5.585584,462.498627 2.750581,454.368103 
	C2.649162,454.077301 1.604866,454.115265 1.000000,454.000000 
	C1.000000,401.645782 1.000000,349.291534 1.000000,296.468658 
	C1.599942,295.881653 2.645403,295.904907 2.734626,295.624207 
	C4.927727,288.724365 10.293075,284.819031 16.129728,281.423248 
	C35.147861,270.358521 54.183468,259.323425 73.252365,248.346466 
	C83.065857,242.697357 92.958534,237.185547 102.836479,231.649277 
	C103.513359,231.269897 104.366867,231.205627 105.806458,231.171722 
	C106.800873,232.223862 107.415520,233.100815 107.410286,233.974075 
	C107.322075,248.686737 106.928291,263.402496 107.158882,278.108887 
	C107.221428,282.097870 107.495247,285.768005 105.042053,289.114471 
z"/>
<path fill="#000000" opacity="1.000000" stroke="none" 
	d="
M1.000000,454.468658 
	C1.604866,454.115265 2.649162,454.077301 2.750581,454.368103 
	C5.585584,462.498627 12.529449,466.181549 19.375511,470.080688 
	C45.024426,484.688782 70.631462,499.370453 96.242622,514.044739 
	C109.614731,521.706543 122.965858,529.404968 136.310379,537.114685 
	C136.848511,537.425598 137.221191,538.022888 137.335480,538.743408 
	C91.756577,539.000000 46.513145,539.000000 1.000000,539.000000 
	C1.000000,510.979675 1.000000,482.958496 1.000000,454.468658 
z"/>
<path fill="#000000" opacity="1.000000" stroke="none" 
	d="
M398.468628,539.000000 
	C398.434082,538.301880 398.698914,537.312134 399.326752,536.947754 
	C423.456207,522.941956 447.603210,508.966217 471.782562,495.046722 
	C488.084412,485.662140 504.355835,476.218964 520.812378,467.111908 
	C526.713989,463.845917 529.856934,458.459473 533.746826,453.665039 
	C534.000000,482.277130 534.000000,510.554291 534.000000,539.000000 
	C488.979248,539.000000 443.958282,539.000000 398.468628,539.000000 
z"/>
<path fill="#F7BB00" opacity="1.000000" stroke="none" 
	d="
M105.427917,289.056183 
	C107.495247,285.768005 107.221428,282.097870 107.158882,278.108887 
	C106.928291,263.402496 107.322075,248.686737 107.410286,233.974075 
	C107.415520,233.100815 106.800873,232.223862 106.183807,231.149811 
	C106.761070,230.369003 107.629211,229.786987 108.497353,229.204971 
	C108.997025,230.151718 109.927811,231.096329 109.932472,232.045517 
	C110.019310,249.688187 110.087967,267.332825 109.815033,284.971680 
	C109.793945,286.334106 107.207733,287.656769 105.427917,289.056183 
z"/>
<path fill="#F7BB00" opacity="1.000000" stroke="none" 
	d="
M204.943420,436.252136 
	C205.051651,436.002167 205.264252,436.007782 205.795532,436.028107 
	C205.758728,436.197754 205.403244,436.352722 204.943420,436.252136 
z"/>
</svg>